<svg width="100%" height="100%" id="svg" viewBox="0 0 1440 390" xmlns="http://www.w3.org/2000/svg" class="transition duration-300 ease-in-out delay-150"><path d="M 0,400 L 0,60 C 198.66666666666663,34.266666666666666 397.33333333333326,8.533333333333324 530,30 C 662.6666666666667,51.466666666666676 729.3333333333334,120.13333333333335 870,158 C 1010.6666666666666,195.86666666666665 1225.3333333333333,202.93333333333334 1440,210 L 1440,400 L 0,400 Z" stroke="none" stroke-width="0" fill="#e9a209" fill-opacity="0.265" class="transition-all duration-300 ease-in-out delay-150 path-0" transform="rotate(-180 720 200)"></path><path d="M 0,400 L 0,140 C 144,125.86666666666666 288,111.73333333333332 468,120 C 648,128.26666666666668 864,158.93333333333334 1032,191 C 1200,223.06666666666666 1320,256.5333333333333 1440,290 L 1440,400 L 0,400 Z" stroke="none" stroke-width="0" fill="#e9a209" fill-opacity="0.4" class="transition-all duration-300 ease-in-out delay-150 path-1" transform="rotate(-180 720 200)"></path><path d="M 0,400 L 0,220 C 179.0666666666666,199.33333333333331 358.1333333333332,178.66666666666666 537,200 C 715.8666666666668,221.33333333333334 894.5333333333335,284.6666666666667 1045,320 C 1195.4666666666665,355.3333333333333 1317.7333333333331,362.66666666666663 1440,370 L 1440,400 L 0,400 Z" stroke="none" stroke-width="0" fill="#e9a209" fill-opacity="0.53" class="transition-all duration-300 ease-in-out delay-150 path-2" transform="rotate(-180 720 200)"></path><path d="M 0,400 L 0,300 C 192.40000000000003,301.6 384.80000000000007,303.2 554,321 C 723.1999999999999,338.8 869.1999999999998,372.8 1013,397 C 1156.8000000000002,421.2 1298.4,435.6 1440,450 L 1440,400 L 0,400 Z" stroke="none" stroke-width="0" fill="#e9a209" fill-opacity="1" class="transition-all duration-300 ease-in-out delay-150 path-3" transform="rotate(-180 720 200)"></path></svg>